<svg id="_1" xmlns="http://www.w3.org/2000/svg" width="148" height="158.8" viewBox="0 0 148 158.8"><style>.st0{fill:#fef0de}.st2{fill:#fff}.st3{fill:#148d90}.st4{fill:#40469b}.st5{fill:#7abd31}.st6{fill:#5dbfb1}.st7{fill:#dd4f2c}.st8{fill:#b968a6}</style><path d="M147.1 97.2c-1.7 1.6-3.4 3.2-5 4.9-1.1 1.1-2.3 2.1-3.8 2.7-.1 0-.2.1-.4.2.2.3.5.4.8.5 2.4 1.2 4.7 2.4 7.1 3.6.2.1.4.2.5.3 1.3.8 1.3 2.5-.1 3.2-1.3.7-2.6 1.3-3.9 2-28.2 14.1-56.5 28.2-84.7 42.4-1.7.8-3.4 1.3-5.3 1.3-1.8 0-3.6-.5-5.2-1.3-7.5-3.8-15.1-7.5-22.6-11.3-7.6-3.8-15.1-7.6-22.7-11.4-.5-.2-.9-.5-1.1-1-.4-.9 0-1.8.9-2.3 1.1-.6 2.2-1.1 3.4-1.7 1.6-.8 3.1-1.6 4.7-2.4.1-.1.2-.2.5-.3-1.9-1-3.8-1.9-5.8-2.9v-.7-76.1c0-1.3.2-2.6.8-3.7.7-1.2 1.7-2 2.9-2.6l23.4-11.7c18.1-9.1 36.2-18.1 54.3-27.2C87.6.8 89.5.6 91.4.9c2.7.5 5.3.9 8 1.4 2.4.4 4.8.9 7.2 1.3 2.7.5 5.4.9 8.1 1.4 1.3.2 2.5.5 3.8.7.2 0 .4.1.7.1 1.8-.1 3.9 1 4.5 3.4l2.1 7.8 4.8 18c2.3 8.6 4.6 17.2 6.9 25.9 2.1 7.9 4.2 15.8 6.4 23.7 1 4.1 2.1 8.3 3.2 12.6zM4.7 123.5c15.9 8 31.8 15.9 47.7 23.9 2.1-2 4.1-4 6.1-6 .3-.2.3-.5.2-.8-1.5-5.8-3.1-11.6-4.6-17.4-2.6-10-5.3-19.9-7.9-29.9-.1-.4-.3-.7-.7-.9L28.7 84c-.4-.2-.7-.2-1.1 0-2.3 1.2-4.5 2.3-6.8 3.4-.5.3-1 .3-1.5 0-4.5-2.3-9.1-4.6-13.6-6.8-.3-.1-.5-.3-.9-.4-.1 14.5-.1 28.8-.1 43.3zm3.9-83c.3.1.5.1.7.2.7.1 1.3.2 2 .4 4.2.8 8.4 1.6 12.6 2.3 4.3.8 8.5 1.5 12.8 2.3.7.1 1.2 0 1.9-.3 14.9-7.5 29.9-15 44.8-22.4L117 6.2c.2-.1.5-.3.8-.5-.2-.1-.3-.1-.4-.1-2.7-.5-5.3-.9-8-1.4-3-.5-5.9-1.1-8.9-1.6s-6-1-9-1.6c-2.1-.4-4-.1-5.8.8-6.3 3.1-12.5 6.3-18.8 9.4-.2.1-.4.2-.7.4.5.8 1 1.6 1.5 2.3-.2.1-.4.2-.5.3C60.1 17.9 53 21.4 45.9 25c-.2.1-.5.2-.7.2-2.1.2-4.2.3-6.2.4-.5 0-.9.1-1.4.4-9.4 4.7-18.9 9.4-28.3 14.1-.2.1-.4.3-.7.4zM146.8 97c-.1-.3-.1-.5-.2-.7-1.2-4.4-2.4-8.8-3.5-13.2-3.5-13.2-7.1-26.5-10.6-39.7l-7.8-29.1c-.5-1.7-.9-3.4-1.4-5.2-.5-1.9-2.2-3.1-4.1-3.1a163912432930019200 163912432930019200 0 0 0-83.5 46.3c.1.3.1.5.2.8 2.9 11 5.9 22 8.8 33.1 2.8 10.5 5.6 21.1 8.4 31.6 2 7.5 4 15.1 6 22.6 0 .2.1.3.2.5 29.2-14.7 58.3-29.3 87.5-43.9zM45.9 92.3c-.1-.4-.1-.6-.2-.9-3.4-12.7-6.8-25.5-10.2-38.2-.4-1.4-.4-1.4-1.8-1.6-3.2-.5-6.3-1.1-9.5-1.6-3.1-.5-6.2-1-9.3-1.6-2.5-.4-5.1-.9-7.6-1.3-.9-.1-1.7-.3-2.6-.4v33.1c5.1 2.5 10.2 5.1 15.3 7.6 2.7-1.4 5.4-2.7 8.2-4.1 5.9 3.1 11.7 6 17.7 9zm7.8 54.2l.1.1c.3-.1.6-.3.9-.4 7.2-3.6 14.4-7.2 21.7-10.8 21.1-10.5 42.2-21.1 63.2-31.6.4-.2.8-.5 1.1-.8 1.4-1.3 2.8-2.7 4.2-4.1l1-1c-.3 0-.5.1-.7.2-28.5 14.2-57 28.5-85.5 42.7-.4.2-.8.5-1.1.8-1.2 1.1-2.3 2.2-3.4 3.4-.5.6-1 1-1.5 1.5zM35 51.4c0-1 0-2 .4-2.9.4-.9 1-1.6 1.7-2.3-1.8-.3-3.6-.6-5.3-.9-4-.7-7.9-1.5-11.9-2.2L8.5 41c-.3-.1-.6 0-.9.1-.9.6-1.6 1.2-2.1 2.1-.5.9-.8 1.9-.8 3.1C14.9 48 24.9 49.7 35 51.4z"/><path class="st0" d="M4.7 123.5V80.2c.3.2.6.3.9.4 4.6 2.3 9.1 4.5 13.6 6.8.6.3 1 .3 1.5 0 2.3-1.2 4.5-2.3 6.8-3.4.4-.2.7-.2 1.1 0l16.8 8.4c.4.2.6.5.7.9 2.6 10 5.3 19.9 7.9 29.9 1.5 5.8 3.1 11.6 4.6 17.4.1.3.1.6-.2.8-2 2-4.1 4-6.1 6-15.7-8-31.6-16-47.6-23.9zm10.1-6.5c8.5 4.2 17 8.5 25.5 12.7.1.1.3.1.4.2h.1l.1-.1v-2.1-2.2c-2-1.2-25.5-12.8-26.1-12.9v4.4zm.1-17.3c0 .2-.1.4-.1.5v3.5c0 .4.2.7.6.9 8.3 4.2 16.6 8.3 25 12.5.2.1.4.1.6.2v-.8-2.9c0-.6-.2-.9-.8-1.2l-24.6-12.3c-.2-.2-.4-.3-.7-.4zm26 23.9c0-.3.1-.5.1-.7v-3.2c0-.5-.1-.7-.6-.9-8.3-4.1-16.6-8.3-25-12.5-.2-.1-.4-.1-.6-.2v3.7c0 .6.2.9.7 1.1l24.6 12.3.8.4zM7 120.5c-.2 1.6.5 2.4 1.8 2.1.3-1.5-.4-2.4-1.8-2.1zm42.6 21.3c-.1 1.6.7 2.5 1.9 2 .1-1.6-.6-2.3-1.9-2zm4.8-4.3c-.2 1.7.5 2.5 1.8 2.1.3-1.5-.4-2.3-1.8-2.1zM8.6 40.5c.3-.2.5-.3.8-.4 9.4-4.7 18.9-9.4 28.3-14.1.4-.2.9-.3 1.4-.4 2.1-.1 4.2-.3 6.2-.4.2 0 .5-.1.7-.2 7.1-3.5 14.2-7.1 21.3-10.6.2-.1.3-.2.5-.3-.5-.8-1-1.5-1.5-2.3.2-.1.5-.3.7-.4C73.3 8.3 79.5 5.1 85.8 2c1.9-.9 3.8-1.2 5.8-.8 3 .6 6 1.1 9 1.6s5.9 1.1 8.9 1.6c2.7.5 5.3.9 8 1.4.1 0 .2 0 .4.1-.3.2-.6.3-.8.5L83.5 23.2c-15 7.3-29.9 14.8-44.9 22.3-.6.3-1.2.4-1.9.3-4.3-.8-8.5-1.6-12.8-2.3-4.2-.8-8.4-1.6-12.6-2.3-.7-.1-1.3-.2-2-.4-.2-.1-.4-.2-.7-.3zM35.8 44c1.2.7 2.4.2 3.6-.2.2-.1.3-.4.3-.6 0-.3-.3-.3-.5-.3-1.1-.4-2 .1-3 .4-.3 0-.4.3-.4.7zm-20-3.5c.6-.2 1.3-.3 2-.6.2-.1.3-.4.4-.7 0-.1-.2-.3-.3-.3-1.1-.4-2.2 0-3.3.4-.2.1-.3.4-.3.7 0 .1.3.2.4.3.3.1.6.1 1.1.2zM91.6 2.4c-1.2-.5-2.3-.2-3.4.2-.3.1-.5.4-.4.7 0 .2.4.3.6.4 1 .3 1.9-.1 2.8-.4.3-.2.5-.5.4-.9zm21.6 3.8c-1.3-.6-2.5-.2-3.6.3-.1 0-.2.4-.2.6 0 .1.3.2.4.3 1.1.4 2.1 0 3.1-.3.2-.1.4-.5.3-.9z"/><path d="M146.8 97c-29.2 14.6-58.3 29.2-87.5 43.7-.1-.2-.2-.3-.2-.5-2-7.5-4-15.1-6-22.6-2.8-10.5-5.6-21.1-8.4-31.6-2.9-11-5.9-22-8.8-33.1-.1-.3-.1-.5-.2-.8-.8-2.4.4-5.1 2.8-6.4 3.4-1.6 6.7-3.3 10-5l68.4-34.2c.7-.4 1.4-.7 2.3-.7 1.8-.1 3.6 1.2 4.1 3.1.5 1.7.9 3.4 1.4 5.2l7.8 29.1c3.5 13.2 7.1 26.5 10.6 39.7 1.2 4.4 2.4 8.8 3.5 13.2.1.4.1.7.2.9zm-86.1 38.9c.4-.2.8-.3 1.1-.5 10.1-5.1 20.3-10.1 30.4-15.2l51-25.5c.8-.4.8-.4.6-1.3l-5.1-19.2-10.8-40.5c-1.5-5.8-3.1-11.6-4.6-17.4-.4-1.6-.9-3.3-1.3-4.9-.3-1.1-.9-1.8-2.1-2-.7-.1-1.3.1-1.9.4-20.8 10.4-41.7 20.9-62.5 31.3-5.2 2.6-10.3 5.2-15.5 7.7-.7.3-1.2.8-1.5 1.5-.4.8-.3 1.5-.1 2.3 3.4 12.7 6.7 25.3 10.1 38l6.6 24.6c1.8 6.6 3.5 13.2 5.3 19.8 0 .3.2.5.3.9z" fill="#91cbb7"/><path class="st0" d="M45.9 92.3c-6-3-11.9-5.9-17.7-8.9-2.7 1.4-5.4 2.7-8.2 4.1-5.1-2.6-10.2-5.1-15.3-7.6V46.8c.9.1 1.8.3 2.6.4 2.5.4 5.1.9 7.6 1.3 3.1.5 6.2 1 9.3 1.6 3.2.5 6.3 1.1 9.5 1.6 1.4.2 1.4.2 1.8 1.6 3.4 12.7 6.8 25.5 10.2 38.2.1.1.1.4.2.8zm-18.2-20c-.1-.5-.1-1.2-.2-1.9-.7-4-2.4-7.4-5.4-10.2-1.2-1.1-2.5-2-4.1-2.4-2.6-.7-4.9.4-5.9 2.9-.5 1.1-.7 2.3-.7 3.5 0 .7-.1 1.3-.2 1.9-.2.7-.2 1.5-.2 2.2.2 2 .9 3.9 2.1 5.6.9 1.3 2 2.3 3.5 3 .3.1.6.3.9.5 1 .8 2.1 1.5 3.4 1.9 2.5.7 4.7-.2 5.9-2.5.7-1.4.8-2.8.9-4.5zm4.7-18.7c-.2 1.6.5 2.4 1.8 2.1.3-1.5-.4-2.3-1.8-2.1zM6.7 49.2c-.2 1.6.6 2.5 1.8 2.1.3-1.5-.4-2.3-1.8-2.1z"/><path class="st2" d="M53.7 146.5l1.5-1.5 3.4-3.4c.3-.3.7-.6 1.1-.8 28.5-14.2 57-28.5 85.5-42.7.2-.1.4-.2.7-.2l-1 1c-1.4 1.4-2.8 2.7-4.2 4.1-.3.3-.7.6-1.1.8-21.1 10.6-42.2 21.1-63.2 31.6-7.2 3.6-14.4 7.2-21.7 10.8-.3.1-.6.3-.9.4l-.1-.1z"/><path class="st3" d="M35 51.4C24.9 49.7 14.9 48 4.8 46.3c0-1.1.2-2.1.8-3.1.5-.9 1.2-1.6 2.1-2.1.3-.2.6-.2.9-.1L20 43.1c4 .7 7.9 1.5 11.9 2.2 1.7.3 3.4.6 5.3.9-.7.7-1.3 1.4-1.7 2.3-.5.9-.5 1.9-.5 2.9z"/><path d="M14.8 117v-4.5c.6.1 24.1 11.7 26.1 12.9V129.7c-.1 0-.1.1-.1.1h-.1c-.1 0-.3-.1-.4-.2-8.5-4.1-17-8.3-25.5-12.6zm25.8 11.3c-8.1-4-16.2-8.1-24.3-12.1v-2.8l-1.2-.6v3.9c8.5 4.2 16.9 8.5 25.5 12.7v-1.1zM14.9 99.7c.3.1.5.2.8.4l24.6 12.3c.5.3.8.5.8 1.2-.1 1 0 2 0 2.9v.8c-.3-.1-.5-.1-.6-.2-8.3-4.2-16.6-8.3-25-12.5-.4-.2-.6-.4-.6-.9v-3.5c-.1-.1-.1-.3 0-.5zm25.7 17.1v-1.2c-8.1-4-16.2-8.1-24.3-12.1v-2.7l-1.2-.6v3.9c8.5 4.2 17 8.4 25.5 12.7zM40.9 123.6c-.3-.2-.6-.2-.8-.4l-24.6-12.3c-.5-.3-.7-.6-.7-1.1v-2.9-.8c.3.1.5.2.6.2 8.3 4.2 16.6 8.3 25 12.5.4.2.6.5.6.9v3.2c-.1.2-.1.4-.1.7zm-.3-.5v-1.2c-8.1-4-16.2-8.1-24.3-12.1v-2.7l-1.2-.6v3.9c8.5 4.2 17 8.5 25.5 12.7zM7 120.5c1.3-.3 2.1.6 1.8 2.1-1.3.3-2-.5-1.8-2.1zM49.6 141.8c1.3-.4 2 .4 1.9 2-1.2.5-2-.3-1.9-2zM54.4 137.5c1.4-.2 2.1.6 1.8 2.1-1.3.3-2-.5-1.8-2.1zM35.8 44c-.1-.4 0-.7.4-.8 1-.3 1.9-.7 3-.4.2.1.5 0 .5.3 0 .2-.1.6-.3.6-1.1.5-2.3.9-3.6.3zM15.8 40.5c-.4-.1-.8-.1-1.1-.2-.2 0-.5-.2-.4-.3.1-.2.1-.6.3-.7 1.1-.4 2.1-.7 3.3-.4.1 0 .3.2.3.3-.1.2-.2.6-.4.7-.7.3-1.4.4-2 .6zM91.6 2.4c.1.4-.1.7-.4.9-.9.3-1.9.7-2.8.4-.2-.1-.5-.2-.6-.4-.1-.3.1-.6.4-.7 1.1-.4 2.2-.8 3.4-.2zM113.2 6.2c.1.4 0 .7-.4.8-1 .3-2 .7-3.1.3-.2-.1-.4-.2-.4-.3 0-.2.1-.5.2-.6 1.2-.3 2.4-.8 3.7-.2zM27.7 72.3c0 1.7-.2 3.1-.9 4.4-1.2 2.3-3.4 3.3-5.9 2.5-1.3-.4-2.4-1.1-3.4-1.9-.3-.2-.6-.4-.9-.5-1.5-.6-2.6-1.7-3.5-3-1.2-1.7-1.9-3.5-2.1-5.6-.1-.7 0-1.5.2-2.2.2-.6.2-1.3.2-1.9 0-1.2.2-2.4.7-3.5 1.1-2.5 3.3-3.6 5.9-2.9 1.6.4 2.9 1.3 4.1 2.4 2.9 2.8 4.7 6.2 5.4 10.2.1.8.1 1.5.2 2zm-8.4 4.6c1.8.9 3.9.3 4.8-1.6.6-1.1.8-2.3.7-3.6-.2-3.3-1.5-6.2-3.8-8.6-1.1-1.1-2.3-2-3.9-2.3-1.9-.4-3.8.9-4.1 2.9 1.3-.3 1.9-.3 2.8.1.7.4 1.4.8 2 1.3 2 1.9 3.2 4.3 3.4 7 .1 1.8-.2 3.6-1.9 4.8zm1.6-3.9c-.2-3.2-1.3-5.7-3.4-7.8-.7-.7-1.5-1.1-2.5-1.4-1-.3-2.4.1-3 1.1-.5.8-.7 1.6-.7 2.5 0 2.7.9 5 2.7 7.1.8.9 1.7 1.7 2.9 2.1 1.6.5 3.1-.2 3.7-1.8.1-.6.2-1.4.3-1.8zm-3-12.4c.4-.5.4-2 0-2.5-.2.8-.2 1.6 0 2.5zm7.3 13c0 .1 0 .1-.1.2.6.3 1.2.7 1.9 1 0 0 .2-.1.3-.1-.9-.7-1.7-1.1-2.1-1.1zM56.7 93.7c0 .1 0 .1.1.2l-.1-.2c.1-.1 0-.1 0 0z"/><path d="M143.9 93.4l-5.1-19.2L128 33.7c-1.5-5.8-3.1-11.6-4.6-17.4-.4-1.6-.9-3.3-1.3-4.9-.3-1.1-.9-1.8-2.1-2-.7-.1-1.3.1-1.9.4-20.9 10.4-41.8 20.9-62.6 31.3-5.2 2.6-10.3 5.2-15.5 7.7-.7.3-1.2.8-1.5 1.5-.4.8-.3 1.5-.1 2.3 3.4 12.7 6.7 25.3 10.1 38l6.6 24.6c1.8 6.6 3.5 13.2 5.3 19.8.1.3.2.5.3.9.4-.2.8-.3 1.1-.5 10.1-5.1 20.3-10.1 30.4-15.2l51-25.5c.9-.4.9-.4.7-1.3zm-83 42c-.4-1.6-.8-3-1.2-4.5l-2.5-9.8c-.2-.7-.4-1.3-.5-1.9-3-11.3-6-22.6-9-34-1.9-7.2-3.8-14.3-5.7-21.5-1-3.9-2-7.8-3.1-11.6-.3-1.2.1-2.2 1.3-2.8 2.4-1.2 4.8-2.4 7.3-3.6l31.2-15.6c.2-.1.5-.2.9-.4 1.3 3.2 2.6 6.4 3.8 9.6 3.9 10.1 7.2 20.5 9.9 31l19.4-7 3.3 1.3 4.8 14.3c3.7-1.9 7.5-3.7 11.3-5.7-2.1-10.3-4.6-20.5-7.7-30.5A222 222 0 0 0 113 13.4c.1 0 .1-.1.2-.1.2.4.5.9.7 1.3 2.8 6.1 5.4 12.2 7.6 18.6 2.4 6.7 4.5 13.5 6.3 20.4 1.6 6.1 3 12.2 4.3 18.3.7 3.4 1.4 6.8 2 10.2.6 3.2 1 6.3 1.5 9.5 0 .3 0 .5.1.9-2.6 1.3-5.3 2.6-7.9 3.9l.1.3c2.4-1.2 4.9-2.4 7.3-3.6.4-.2.8-.3 1.3-.2 2.1.4 4.3.8 6.4 1.2.1 0 .2.1.3.2-27.5 13.8-54.9 27.4-82.3 41.1zM32.4 53.6c1.4-.3 2.1.6 1.8 2.1-1.3.3-2-.5-1.8-2.1zM6.7 49.2c1.4-.2 2.1.6 1.8 2.1-1.2.4-2-.5-1.8-2.1z"/><path class="st0" d="M40.6 128.3v1.2c-8.5-4.3-17-8.5-25.5-12.7v-3.9l1.2.6v2.8l24.3 12z"/><path class="st4" d="M91 24l9-4.5c.6-.3 1.3-.6 1.9-1 .4-.2.6-.2.8.3 2.2 5.3 4.3 10.6 6.2 16 3.1 8.6 5.7 17.4 7.9 26.3 1.4 5.7 2.7 11.4 3.7 17.1 0 .3.1.5.2.8 0 .1 0 .2-.1.2-.6.4-1.3.7-1.9 1-.7.3-1 .2-1.1-.6-.4-2.4-.8-4.7-1.4-7.1-.5-2.2-1-4.3-1.6-6.4-.2-.9-.3-.9-1.1-.5-2.2 1.1-4.5 2.2-6.7 3.4-.3.2-.7.4-1.1.2-.1-.1-.1-.3-.2-.4-1.3-5.4-2.8-10.8-4.4-16.1-1.5-4.9-3.2-9.8-4.9-14.6-1.6-4.3-3.3-8.6-5.1-12.9-.1-.5-.3-.8-.1-1.2z"/><path class="st5" d="M56.7 41.1c2.4-1.3 4.9-2.5 7.3-3.7 1.4-.7 2.8-1.4 4.2-2 .3.1.4.4.5.7 2.5 5.8 4.7 11.7 6.8 17.7 2.9 8.4 5.4 16.9 7.5 25.6.1.4.2.7.2 1.1-.1.3-.3.4-.5.5-3.4 1.7-6.9 3.3-10.4 5.1-.2.1-.5.2-.7.1-.4-.2-.4-.6-.5-1-1.9-8-4.2-15.9-6.9-23.7-2.2-6.6-4.7-13-7.4-19.4-.1-.3-.3-.6-.1-1z"/><path class="st6" d="M56.7 41.1c3.5 8.2 6.6 16.5 9.3 24.9 2.1 6.5 4 13.1 5.5 19.8 0 .1.1.2.1.3 0 .3-.2.4-.5.5-3.4 1.7-6.7 3.4-10.1 5-.3.1-.6.4-1 .2-.3-.3-.3-.7-.4-1-2-8.3-4.4-16.4-7.2-24.5-2.2-6.3-4.6-12.6-7.2-18.7-.1-.3-.3-.5-.1-.8 3.9-1.9 7.8-3.8 11.6-5.7z"/><path class="st7" d="M91 24c1.7 4.1 3.3 8.1 4.9 12.3 4 10.7 7.4 21.6 10 32.7 0 0 0 .1.1.1-.1.3-.4.4-.7.6-3.3 1.7-6.6 3.3-9.9 5-.3.1-.6.4-.9.2-.2-.2-.3-.5-.4-.8-1.8-7.7-4-15.3-6.6-22.8-2.3-6.9-4.9-13.8-7.8-20.5-.1-.3-.4-.6-.2-1 3.8-2 7.6-3.9 11.5-5.8z"/><path class="st8" d="M79.5 29.7c5.2 12.3 9.7 24.9 13.1 37.9l1.8 7.2c0 .4-.3.4-.5.5-3.3 1.7-6.7 3.4-10 5-.2.1-.5.3-.8.1-1.1-4.4-2.2-8.7-3.5-13.1-3.2-10.9-7-21.6-11.5-32.1 2.9-1.5 5.9-3 8.8-4.4.9-.3 1.7-.8 2.6-1.1z"/><path d="M45.2 46.8c4.9 11.5 9.1 23.3 12.4 35.4.9 3.2 1.7 6.5 2.6 9.7-.3.6-1 .7-1.5 1-1.7.9-1.7.5-1.1 2.5 1.3 4.2 2.4 8.4 3.4 12.6.1.3.1.5 0 .8-.1.2-.3.3-.5.4-1.7.8-3.3 1.7-5 2.5-.2.1-.5.3-.8.1-2.2-8.2-4.4-16.5-6.6-24.7-3-11.7-6.1-23.4-9.2-35.1-.3-1.1 0-2 1.1-2.5 1.7-.9 3.5-1.8 5.2-2.7z" fill="#e3d068"/><path class="st6" d="M54.8 111.8c1.8-.8 3.5-1.7 5.3-2.6.3-.1.6-.3.9-.4.4.1.4.5.4.8.2 1.1.5 2.2.7 3.3.1.7.2.7.9.4.5-.2.9-.7 1.5-.5.5 1.4.6 2.8.8 4.2-.1.4-.4.5-.7.6l-1.8.9c-.9.4-1.8.9-2.8 1.4-.3.2-.6.3-1 .3-.5.2-.9.4-1.4.6-.4.2-.5.1-.6-.3-.6-2.8-1.4-5.7-2.2-8.7z"/><path class="st5" d="M64.4 112.9c3.8-1.9 7.7-3.8 11.5-5.7.2.1.3.3.3.5.2 1.3.5 2.5.6 3.8-.1.3-.3.3-.5.3-.4.1-.8.3-1.2.6-.4.1-.8.3-1.2.6-.5.3-1 .5-1.5.8-.7.3-1.5.6-2.1 1.1-.8.3-1.6.7-2.4 1.2-.8.3-1.6.7-2.4 1.2-.1 0-.2 0-.3.1-.3-1.6-.6-3.1-.8-4.5z"/><path class="st8" d="M88.1 105.7c-.1.1-.2.2-.4.3-.3.1-.6.2-.9.4-.5.2-1.1.4-1.5.8-.3.1-.6.2-.9.4-.5.2-1.1.4-1.5.8-.5.2-1 .4-1.5.8-.5.2-1 .4-1.5.8-.5.2-1 .4-1.5.8-.3 0-.5.2-.7.3-.3.1-.7.3-1 .4-.3-1.4-.5-2.9-.8-4.3 3.8-1.9 7.7-3.8 11.5-5.7h.1c.5 1.3.8 2.7.6 4.2z"/><path class="st4" d="M99.6 100.1h-.1c-.1-.1-.2-.3-.3-.4-.2-1.2-.5-2.4-.6-3.6 0-.1 0-.2.1-.4 2.8-1.4 5.7-2.9 8.5-4.3l2.4-1.2c.4-.2.6-.2.7.4.2 1.3.4 2.5.7 3.7-.4.2-.8.4-1.2.7l-1.8.9c-.4.2-.9.4-1.3.7l-1.2.6c-.5.3-1 .5-1.5.8-.5.2-.9.5-1.4.7-.6.2-1.2.5-1.8.9-.4.1-.8.3-1.2.5z"/><path class="st7" d="M98.7 95.8c.4 1.4.5 2.9.8 4.4-.3.1-.7.2-.9.5-.4.1-.8.3-1.2.6-.6.2-1.2.5-1.8.9-.4.1-.8.3-1.2.6-.5.2-1 .4-1.5.8-.4.1-.6.3-.9.5-.5.1-.8.3-1.2.6-.5.2-1 .4-1.5.8-.3.1-.7.3-1 .4-.2-1.4-.5-2.9-.7-4.3 3.6-2.1 7.3-4 11.1-5.8z"/><path class="st0" d="M40.6 116.8c-8.5-4.3-17-8.5-25.5-12.7v-3.9l1.2.6v2.7c8.1 4.1 16.2 8.1 24.3 12.1v1.2zM40.6 123.1c-8.5-4.3-17-8.5-25.5-12.7v-3.9l1.2.6v2.7c8.1 4 16.2 8.1 24.3 12.1v1.2z"/><path class="st2" d="M100.9 109.8c-.2-.4-.4-.8-.5-1.1-.7-1.5-1.5-3-2.3-4.5-.3-.7-.7-1.3-1-2-.3-.6-.2-.7.4-1.1 4.2-2.1 8.4-4.3 12.6-6.4 3.8-1.9 7.6-3.7 11.3-5.6.2-.1.5-.3.8-.4-.5-3.2-1.1-6.4-1.7-9.7 3.7-1.9 7.5-3.7 11.3-5.7-2.1-10.3-4.6-20.5-7.7-30.5a222 222 0 0 0-11.4-29.3c.1 0 .1-.1.2-.1.2.4.5.9.7 1.3 2.8 6.1 5.4 12.2 7.6 18.6 2.4 6.7 4.5 13.5 6.3 20.4 1.6 6.1 3 12.2 4.3 18.3.7 3.4 1.4 6.8 2 10.2.6 3.2 1 6.3 1.5 9.5 0 .3 0 .5.1.9-11.4 5.7-22.9 11.4-34.5 17.2z"/><path d="M57 93.5s5 18.2 5.2 20.4l48.1-24.1.7 4.2 11.6-5.6-1.9-9.7L118 80s-2.4-13.5-3.5-15.2L57 93.5z"/><path d="M60.9 135.4c-.4-1.6-.8-3-1.2-4.5.3-.1.5-.3.7-.4 24.9-12.4 49.8-24.9 74.6-37.3.4-.2.8-.3 1.3-.2 2.1.4 4.3.8 6.4 1.2.1 0 .2.1.3.2-27.3 13.7-54.7 27.3-82.1 41z" fill="#e5d3a3"/><path class="st2" d="M72.2 91.9c.5 1.9.9 3.7 1.3 5.5.4-.2.7-.3 1.1-.5.1.4.2.9.4 1.3-.4.2-.7.4-1.1.6.2.9.4 1.8.6 2.8-.7.4-1.5.7-2.3 1.1-.2-.9-.4-1.8-.7-2.7-1.6.7-3 1.5-4.5 2.1-.3-.4-.6-1.8-.7-2.7.3-.2.7-.4 1-.5-.1-.5-.2-.9-.3-1.4.4-.2.7-.4 1.1-.6-.1-.5-.2-.9-.3-1.4.4-.2.7-.4 1.1-.6-.1-.5-.2-.9-.3-1.4 1.3-.5 2.5-1.1 3.6-1.6zm-2.7 4.4c.1.5.2.9.3 1.4-.4.2-.7.4-1.1.6.1.5.2.9.4 1.4.8-.4 1.5-.8 2.3-1.1-.2-.9-.4-1.8-.7-2.7-.5 0-.8.2-1.2.4zM105.9 77c-.1-.5-.2-.9-.3-1.4 1.1-.6 2.3-1.1 3.4-1.7.5 1.9.9 3.6 1.3 5.5.4-.2.7-.3 1.1-.5.1.4.2.9.4 1.3-.4.2-.7.4-1.1.6.2.9.4 1.8.6 2.8-.7.4-1.5.7-2.3 1.1-.2-.9-.5-1.8-.7-2.7-.8.4-1.5.7-2.2 1.1-.7.4-1.5.7-2.3 1.1-.4-.9-.5-1.8-.7-2.7.4-.2.7-.4 1.1-.6-.1-.4-.2-.9-.3-1.4.3-.2.7-.4 1.1-.6-.1-.5-.2-.9-.3-1.4.5-.1.9-.3 1.2-.5zm-.1 4.7c.8-.4 1.5-.8 2.3-1.1-.2-.9-.4-1.8-.7-2.7-.4.2-.8.4-1.1.5.1.5.2.9.3 1.4-.4.2-.7.4-1.1.6.1.4.2.8.3 1.3zM86.4 86.5c.5 1.9.9 3.7 1.3 5.5.4-.2.7-.3 1.1-.5.1.4.3.9.4 1.3.8-.4 1.5-.7 2.3-1.1-.4-1.8-.9-3.6-1.3-5.5-.4.2-.7.3-1.1.5-.1-.4-.2-.8-.4-1.3-.8.3-1.5.8-2.3 1.1-.1-.5-.2-.9-.3-1.4 1.1-.5 2.2-1.1 3.4-1.7.1.4.2.8.4 1.3.4-.2.7-.3 1.1-.5.1.4.2.8.4 1.3.4-.2.7-.3 1.1-.5.3 1.4.7 2.7 1 4.1-.4.2-.7.4-1.1.6.1.4.2.9.3 1.3-.4.2-.7.4-1.1.6.1.4.2.9.2 1.4-1.1.5-2.2 1.1-3.4 1.6-.1-.5-.2-.9-.4-1.3-.4.2-.7.3-1.1.5-.1-.4-.3-.9-.4-1.3-.4.2-.7.3-1.1.5-.3-1.4-.7-2.7-1-4.1.4-.2.7-.4 1.1-.6-.1-.5-.2-.9-.3-1.4.4 0 .7-.1 1.2-.4zM19.3 76.9c1.7-1.2 2-2.9 1.9-4.8-.3-2.7-1.4-5.1-3.4-7-.6-.5-1.3-1-2-1.3-.9-.4-1.5-.4-2.8-.1.3-2 2.2-3.2 4.1-2.9 1.6.3 2.8 1.2 3.9 2.3 2.3 2.4 3.6 5.3 3.8 8.6.1 1.2-.1 2.4-.7 3.6-.9 1.8-3 2.4-4.8 1.6z"/><path class="st3" d="M20.9 73c-.1.5-.2 1.2-.4 1.8-.5 1.6-2 2.3-3.7 1.8-1.2-.4-2.1-1.1-2.9-2.1-1.7-2-2.7-4.4-2.7-7.1 0-.9.2-1.7.7-2.5.6-1 2-1.5 3-1.1.9.3 1.8.7 2.5 1.4 2.2 2.1 3.3 4.6 3.5 7.8zm-3.4 2.6c.9.1 1.6-.4 2.1-1.2.4-.7.6-1.5.5-2.3-.1-2.1-.9-3.9-2.3-5.5-.6-.6-1.3-1.1-2.1-1.5-1.7-.7-3.1.2-3.5 1.6-.2.8-.2 1.5-.1 2.3.3 2.2 1.2 4.1 2.9 5.5.6.7 1.4 1.1 2.5 1.1z"/><path class="st2" d="M17.9 60.6c-.2-.9-.2-1.7 0-2.5.4.5.4 1.9 0 2.5zM25.2 73.6c.4 0 1.2.4 2.1 1.1-.1.1-.2.2-.3.1-.6-.3-1.2-.7-1.9-1 0-.1 0-.1.1-.2z"/><path d="M69.5 96.3c.4-.2.7-.4 1.1-.5.2.9.4 1.8.7 2.7-.7.4-1.4.7-2.3 1.1-.1-.5-.2-.9-.4-1.4.4-.2.7-.4 1.1-.6 0-.3-.1-.8-.2-1.3zM105.8 81.7c-.1-.5-.2-1-.3-1.4.4-.2.7-.4 1.1-.6-.1-.5-.2-.9-.3-1.4.4-.2.7-.3 1.1-.5.2.9.4 1.8.7 2.7-.8.5-1.5.9-2.3 1.2zM17.5 75.6c-1 0-1.9-.4-2.6-1.1-1.7-1.5-2.6-3.3-2.9-5.5-.1-.8-.1-1.6.2-2.3.5-1.4 1.8-2.4 3.5-1.6.8.3 1.5.8 2.1 1.5 1.4 1.6 2.2 3.4 2.3 5.5 0 .8-.1 1.6-.5 2.3-.5.8-1.2 1.3-2.1 1.2zm2.3-3.2c-.1-2.4-.9-4.2-2.4-5.8-.6-.6-1.3-1.1-2.2-1.3-.9-.2-1.7.1-2.3.8-.5.8-.7 1.6-.6 2.5.1 2 .9 3.7 2.2 5.2.6.6 1.2 1.1 2 1.4 1.3.4 2.4-.1 2.9-1.4.3-.5.3-1.1.4-1.4z"/><path class="st2" d="M19.8 72.4c-.1.3-.1.9-.3 1.4-.4 1.3-1.6 1.8-2.9 1.4-.8-.3-1.5-.8-2-1.4-1.3-1.5-2.1-3.2-2.2-5.2-.1-.9.1-1.8.6-2.5s1.4-1 2.3-.8c.9.2 1.6.7 2.2 1.3 1.4 1.5 2.2 3.4 2.3 5.8z"/><path d="M135.6 92.6l-8.8 3.6L59.2 129l.5 1.9 70-35"/><linearGradient id="SVGID_1_" gradientUnits="userSpaceOnUse" x1="148.442" y1="81.923" x2="43.136" y2="132.001"><stop offset="0" stop-color="#fff"/><stop offset=".512"/></linearGradient><path fill="url(#SVGID_1_)" d="M134 82.1l1.6 10.4-75.9 38.3-2.5-9.7"/></svg>